# xmcd
#
# Track frame offsets:
#	150
#	15027
#	35925
#	48804
#	60553
#	75492
#	86778
#	104270
#	116419
#	137991
#	155524
#	170517
#	186679
#
# Disc length: 2723
#
# Revision: 1
# Processed by: cddbd v1.5.1PL0 Copyright (c) Steve Scherf et al.
# Submitted via: ExactAudioCopy v0.90b4
# Normalized: r0:TRMNUM
#
DISCID=a70aa10d
DTITLE=Sativa - Jersey Girl
DYEAR=2003
DGENRE=Funk
TTITLE0=Something Stank
TTITLE1=Hard as Steel
TTITLE2=Envelope
TTITLE3=Sativa
TTITLE4=Greatest
TTITLE5=Otherside (Get da F. Out)
TTITLE6=Keep it Funkin
TTITLE7=Grind
TTITLE8=I Do, Do This
TTITLE9=Smoke a a Lil Bit
TTITLE10=Figure of Speech
TTITLE11=Denial
TTITLE12=Underground Angel
EXTD=
EXTT0=
EXTT1=
EXTT2=
EXTT3=
EXTT4=
EXTT5=
EXTT6=
EXTT7=
EXTT8=
EXTT9=
EXTT10=
EXTT11=
EXTT12=
PLAYORDER=
